<?xml version="1.0" encoding="UTF-8" standalone="no"?>
<!-- Generator: Adobe Illustrator 16.0.0, SVG Export Plug-In . SVG Version: 6.00 Build 0)  -->

<svg
   xmlns:dc="http://purl.org/dc/elements/1.1/"
   xmlns:cc="http://creativecommons.org/ns#"
   xmlns:rdf="http://www.w3.org/1999/02/22-rdf-syntax-ns#"
   xmlns:svg="http://www.w3.org/2000/svg"
   xmlns="http://www.w3.org/2000/svg"
   xmlns:sodipodi="http://sodipodi.sourceforge.net/DTD/sodipodi-0.dtd"
   xmlns:inkscape="http://www.inkscape.org/namespaces/inkscape"
   version="1.1"
   id="Layer_1"
   x="0px"
   y="0px"
   width="681.08px"
   height="851.35px"
   viewBox="0 0 340.54 425.675"
   enable-background="new 0 0 340.54 425.675"
   xml:space="preserve"
   inkscape:version="0.48.4 r9939"
   sodipodi:docname="sonatrach1.svg"><title
   id="title3020">Sonatrach</title><metadata
   id="metadata43"><rdf:RDF><cc:Work
       rdf:about=""><dc:format>image/svg+xml</dc:format><dc:type
         rdf:resource="http://purl.org/dc/dcmitype/StillImage" /><dc:title>Sonatrach</dc:title></cc:Work></rdf:RDF></metadata><defs
   id="defs41" /><sodipodi:namedview
   pagecolor="#ffffff"
   bordercolor="#666666"
   borderopacity="1"
   objecttolerance="10"
   gridtolerance="10"
   guidetolerance="10"
   inkscape:pageopacity="0"
   inkscape:pageshadow="2"
   inkscape:window-width="640"
   inkscape:window-height="480"
   id="namedview39"
   showgrid="false"
   inkscape:zoom="0.55441359"
   inkscape:cx="170.27"
   inkscape:cy="212.83749"
   inkscape:window-x="50"
   inkscape:window-y="50"
   inkscape:window-maximized="0"
   inkscape:current-layer="Layer_1" />
<path
   d="M97.455,146.439c-2.365,0.271-3.698,2.188-3.625,4.063c0.072,1.854,2.073,3.667,3.688,3.656l189.72,0.031  c5.458,0.375,11.375,5.458,11.749,11v99.875c-0.333,5.042-5.874,8.667-10.563,8.955h-91.938v12.17h102.5v57h-256.5v-57h103v-12.17  h-103v-58.33h203c1.876-0.292,3.563-2.333,3.594-3.844c0.027-1.342-1.177-3.531-3.594-3.986H54.028  c-5.979-0.607-11.01-5.545-11.542-11.67v-95.958c0.417-6.501,3.958-11.084,11.042-12.042h245.458v58.17L97.455,146.439z"
   id="path3" />
<g
   id="g5">
	<path
   d="M296.927,36.899c-0.311-0.26-0.971-0.77-1.36-0.87c-0.46-0.13-1.42-0.18-1.89-0.15c-0.4,0.02-1.23,0.23-1.61,0.35   c-0.34,0.12-1,0.45-1.25,0.71c-0.19,0.2-0.45,0.73-0.5,1c0,0,1.147,14.45,0,19.08c-0.097,0.39-0.75,1.42-0.75,1.42l-1.08,1.17   l-0.6,0.32l-0.82,0.43h-2.16l-1.75-0.75l-0.92-0.84l-0.08-0.1c0,0-0.581-0.563-0.67-0.81c-1.633-4.527,0-19.25,0-19.25l-1-1.62   l-1.1-0.65l-1.65-0.31h-1.42l-1.43,0.7l-1.07,1.21l-0.33,1.25c0,0,1.512,13.901,0,18.19c-0.122,0.345-0.92,1.14-0.92,1.14   l-1.08,0.75l-1.5,0.25l-1.58,0.09l-1.59-0.42l-0.83-1c0,0-0.507-0.852-0.58-1.17c-0.99-4.282,0.08-17.58,0.08-17.58l-0.33-0.92   l-0.59-1.16l-0.91-0.92l-1.25-0.41h-1.5l-1.59,0.66l-1.5,1.25l-0.5,1c0,0,2.081,14.992,0.09,19.42   c-0.194,0.432-1.42,1.25-1.42,1.25s-1.037,0.576-1.42,0.66c-1.436,0.317-4.502,0.511-5.88,0c-0.27-0.1-0.87-0.75-0.87-0.75   l-1.04-1.41l-0.21-1c0,0,0.159-5.789,0-7.71c-0.031-0.379-0.25-1.5-0.25-1.5l-0.75-2.33l-0.91-1.67l-1.42-1.92l-1.54-1.79   l-1.42-0.96l-2.25-1.08c0,0-1.89-0.626-2.54-0.75c-0.587-0.111-1.783-0.184-2.38-0.21c-0.549-0.024-1.656-0.08-2.2,0   c-0.614,0.09-1.908,0.37-2.498,0.563c-0.684,0.223-1.946,0.791-2.592,1.107c-0.601,0.295-1.731,1.027-2.25,1.45   c-0.565,0.462-1.59,1.516-2.04,2.09c-0.326,0.415-0.892,1.314-1.12,1.79c-0.301,0.625-0.771,1.942-0.92,2.62   c-0.166,0.758-0.293,2.314-0.29,3.09c0.005,1.005,0.103,3.043,0.41,4c0.288,0.896,1.179,2.589,1.76,3.33   c0.628,0.801,2.217,2.112,3.04,2.71c0.486,0.353,1.534,0.958,2.08,1.21c0.661,0.305,2.75,0.96,2.75,0.96l3.25,0.25l4.88-0.21   c0,0,0.279,2.277,0.08,3c-0.063,0.225-0.5,0.79-0.5,0.79l-3.63,3.29l-2.75,1.79l-1.79,1l-1,0.59l-0.54,0.5l-0.71,0.75l-0.25,0.45   l-0.17,0.59l-0.04,1.21l0.3,1.87l0.79,1.25l1.25,1.42l1.41,0.83l2.29,0.21l1.67-0.62l2.42-2.3l4.79-5.5l1.75-2.29   c0,0,0.76-1.859,1.25-2.29c0.26-0.228,1.29-0.5,1.29-0.5s0.284-0.042,0.32,0.03c0.007,0.013-0.03,0.05-0.03,0.05   s1.147,0.459,1.5,0.67c0.468,0.28,1.316,1.018,1.84,1.17c1.141,0.332,3.577,0.185,4.75,0c0.475-0.075,1.83-0.59,1.83-0.59   l1.58-0.58l1.5-0.75l1.17-0.58c0,0,0.922-0.393,1.25-0.42c0.398-0.033,1.58,0.25,1.58,0.25l1.5,0.58l2.09,0.84l1.83,0.66   c0,0,1.191,0.07,1.58,0c0.475-0.085,1.363-0.507,1.84-0.58c0.371-0.057,1.145-0.602,1.497-0.729c0.306-0.11,0.7-0.603,0.979-0.729   c0.238-0.108,0.726-0.08,1.024-0.212c0.268-0.119,1.16-0.16,1.16-0.16h1l2,0.08l1.84,0.17l1.16,0.33l1.92,0.67   c0,0,1.674,0.507,2.25,0.58c1.221,0.155,3.72,0.271,4.92,0c0.381-0.086,1.41-0.67,1.41-0.67l1.42-1.25l1.42-1.41l1.25-2l0.83-2.5   l0.42-4.25v-18.75C297.786,37.739,297.196,37.129,296.927,36.899z M232.546,52.689c-1.79,0-3.25-1.54-3.25-3.44   s1.46-3.44,3.25-3.44c1.801,0,3.25,1.54,3.25,3.44S234.347,52.689,232.546,52.689z"
   id="path7" />
	<ellipse
   cx="208.57"
   cy="28.231"
   rx="4.25"
   ry="4.167"
   id="ellipse9" />
	<path
   d="M213.205,37.72c-0.103-0.32-0.781-1.094-0.781-1.094l-0.656-0.756l-0.813-0.4l-0.969-0.313h-0.969l-0.906,0.156   l-0.719,0.313l-0.875,0.625l-0.688,0.813l-0.563,0.906l-0.188,1.125v12.688v4.406l-0.406,0.938l-0.354,0.563l-1.021,0.75   c0,0-0.882,0.298-1.188,0.341c-2.027,0.284-6.2,0.489-8.188,0c-0.309-0.076-1.125-0.591-1.125-0.591l-0.938-0.75l-0.563-1.438   c0,0-0.547-1.719-0.625-2.313c-0.867-6.537,0-26.375,0-26.375l-0.141-1.203l-0.375-1.031l-0.406-0.391l-0.594-0.516l-1.234-0.281   h-0.859l-0.906,0.234l-0.688,0.281l-0.953,0.609l-0.781,0.813c0,0-0.257,0.312-0.297,0.438c-0.563,1.769-0.135,5.566-0.141,7.422   c-0.002,0.768-0.184,2.297-0.25,3.063c-0.044,0.508-0.164,1.522-0.188,2.031c-0.031,0.687,0,2.75,0,2.75v2.656l0.219,10.906   c0,0,0.135,3.803,0.281,5.063c0.041,0.354,0.25,1.406,0.25,1.406l0.313,1.063l0.438,1.125l0.875,1.438l1.125,1.125l1.313,0.813   c0,0,1.262,0.586,1.688,0.708c0.375,0.108,0.984,0.229,1.375,0.229c3.656,0,11.01,0.547,14.625,0   c0.68-0.103,1.979-0.578,2.625-0.813c0.494-0.179,1.511-0.506,1.938-0.813c0.287-0.207,0.72-0.783,0.938-1.063   c0.441-0.568,1.625-2.375,1.625-2.375l0.719-2.563v-4.75v-2.75v-8.25v-5.188C213.205,39.501,213.341,38.144,213.205,37.72z"
   id="path11" />
	<path
   d="M176.926,44.569c-0.236-0.867-1.019-2.513-1.52-3.26c-0.402-0.6-1.96-2.12-1.96-2.12l-2-1.04l-1.79-0.92l-3.05-1.12   l-2-0.38l-1.45-0.16c0,0-0.949-0.006-1.25,0.08c-2.698,0.773-7.678,4.136-9.73,5.6c-2.409,1.719-6.402,6.273-9,7.69   c-0.314,0.171-1.025,0.323-1.38,0.37c-0.339,0.045-1.093,0.201-1.37,0c-0.94-0.683,0.873-20.245,0-22.91   c-0.11-0.336-0.489-0.952-0.73-1.21c-0.261-0.28-0.896-0.738-1.25-0.88c-0.578-0.231-1.838-0.364-2.46-0.37   c-0.63-0.006-1.92,0.083-2.5,0.33c-0.294,0.125-1,0.8-1,0.8s-0.895,0.856-1,1.24c-0.444,1.615,0,32.82,0,32.82l-0.44,0.94h-6.37   l-2.31-2.76c0,0-0.891-1.88-0.94-2.56c-0.249-3.473,0-13.56,0-13.56l-1.13-2l-1.75-1.06l-1.68-0.38l-1.19,0.19l-1.13,0.63   l-1.18,1.06l-0.88,1.31l-0.62,1.87v21.88l-0.32,0.88l-1.87,1.81l-2.19,1.5l-1.94,1l-1.62,0.75l-0.88,0.44l-0.62,0.62l-0.63,0.88   c0,0-0.375,0.779-0.43,1.06c-0.209,1.072-0.521,3.41,0,4.37c0.151,0.278,2.581,1.83,3.18,2c1.128,0.32,3.591,0.409,4.69,0   c0.716-0.267,2.31-2,2.31-2l4.5-4.87l2.38-2.44l0.87-1.38l38.25-0.06c0,0,4.589-0.507,6.06-0.94c1.068-0.314,3.074-1.311,4.07-1.81   c1.168-0.586,3.507-1.785,4.56-2.56c0.623-0.459,1.754-1.535,2.25-2.13c0.751-0.9,2.177-2.822,2.561-3.93   c0.518-1.497,0.566-4.726,0.56-6.31C177.6,49.811,177.389,46.265,176.926,44.569z M168.156,54.689c-0.16,0.46-0.82,1.2-1.17,1.54   c-1.19,1.17-4.042,3.12-5.625,3.647c-1.5,0.5-15.955,0.603-16.795,0.272c-0.46-0.19,0-1.56,0.25-2c1.2-2.08,7.63-5.84,7.63-5.84   s5.66-4.13,7.83-4.91c0.46-0.17,1.44-0.24,1.92-0.25c0.31-0.01,0.95-0.08,1.25,0c0.36,0.1,0.99,0.52,1.29,0.75   c0.44,0.33,1.34,1,1.71,1.41c0.43,0.49,1.12,1.62,1.37,2.21c0.13,0.3,0.29,0.93,0.34,1.25   C168.216,53.249,168.306,54.239,168.156,54.689z"
   id="path13" />
	<polygon
   points="95.528,63.231 96.403,64.314 97.361,65.356 98.945,66.564 100.07,66.564 101.361,65.814 102.361,64.897    103.486,63.564 103.695,62.856 103.778,25.48 103.195,24.48 102.361,23.647 101.361,22.98 99.945,22.98 98.361,23.23    97.445,23.939 96.445,24.772 95.528,25.939 95.278,26.855 95.278,61.855  "
   id="polygon15" />
	<path
   d="M85.82,34.106l-6.667,0.917l-2.25,0.667c0,0-1.319,0.728-1.667,1.083c-2.042,2.083-1.476,3.994-1.25,4.417   c0.213,0.397,1.5,1,1.5,1s1.834,1.038,2.5,1.25c0.783,0.25,3.25,0.5,3.25,0.5s2.359,0.133,3.083,0.417   c0.64,0.251,1.724,1.14,2.25,1.583c0.586,0.493,2.167,2.167,2.167,2.167l1.5,2.5c0,0,0.872,1.584,1,2.167c0.107,0.488,0,2,0,2   v2.917c0,0-0.262,1.97-0.5,2.583c-0.318,0.82-1.833,3-1.833,3l-2.75,2.5c0,0-2.567,1.862-3.542,2.25   c-1.528,0.607-6.458,1.25-6.458,1.25l-5.25,0.333c0,0-3.815,0.076-5.083,0c-1.571-0.094-4.699-0.486-6.25-0.75   c-1.62-0.275-4.877-0.842-6.417-1.417c-1.189-0.444-3.382-1.766-4.417-2.5c-0.903-0.641-2.661-2.037-3.333-2.917   c-0.492-0.644-1.166-2.146-1.417-2.917c-0.255-0.785-0.606-2.425-0.583-3.25c0.025-0.899,0.497-2.666,0.833-3.5   c0.307-0.763,1.073-2.266,1.667-2.833c0.323-0.309,1.161-0.686,1.583-0.833c0.42-0.147,1.75-0.333,1.75-0.333s1.681,0.23,2.167,0.5   c0.438,0.243,1.417,1.417,1.417,1.417l2,3.333c0,0,1.681,2.37,2.333,3.083c0.398,0.435,1.247,1.275,1.75,1.583   c0.551,0.337,2.417,0.917,2.417,0.917l4.083,0.417l5.417,0.083c0,0,5.439,0.09,7.083-0.583c0.452-0.185,1.5-1.25,1.5-1.25   s0.703-1.019,0.75-1.417c0.054-0.458-0.346-1.354-0.583-1.75c-0.379-0.632-1.535-1.619-2.167-2   c-1.552-0.936-6.833-2.417-6.833-2.417l-5.667-1.583c0,0-3.221-0.994-4.167-1.583c-0.726-0.452-2.009-1.634-2.5-2.334   c-0.273-0.39-0.75-1.75-0.75-1.75s-0.297-1.749-0.25-2.333c0.07-0.861,0.509-2.571,0.917-3.333c0.39-0.729,2.167-2.5,2.167-2.5   l3.083-3.167l3.917-3.083l4.833-2.333l3.792-1.208l4.042-1.125l3.792-0.333l3.333,0.333l2.708,0.75l1.417,1.042l0.625,1.292v1.625   l-0.542,2.25l-1.375,1.542l-1.708,1l-1.292,0.542L85.82,34.106z"
   id="path17" />
</g>
<g
   id="g19">
	<path
   d="M55.489,399.056c-2.099,0-4.084-0.229-5.954-0.686c-1.871-0.457-3.415-0.99-4.634-1.6v-7.516h0.736   c0.423,0.321,0.905,0.677,1.447,1.066c0.542,0.39,1.295,0.796,2.26,1.219c0.829,0.39,1.765,0.724,2.806,1.003   s2.171,0.419,3.39,0.419c1.252,0,2.357-0.194,3.313-0.584c0.956-0.39,1.435-1.007,1.435-1.854c0-0.66-0.22-1.159-0.66-1.498   c-0.44-0.339-1.295-0.66-2.564-0.965c-0.677-0.169-1.532-0.352-2.564-0.546c-1.033-0.194-1.947-0.419-2.742-0.673   c-2.234-0.694-3.915-1.723-5.04-3.085c-1.126-1.362-1.688-3.152-1.688-5.37c0-1.27,0.292-2.467,0.876-3.593   s1.443-2.129,2.577-3.009c1.134-0.863,2.535-1.549,4.202-2.057c1.667-0.508,3.55-0.762,5.649-0.762c1.997,0,3.834,0.199,5.51,0.597   s3.089,0.876,4.24,1.435v7.211h-0.711c-0.305-0.237-0.787-0.555-1.447-0.952s-1.304-0.74-1.93-1.028   c-0.745-0.339-1.579-0.618-2.501-0.838c-0.923-0.22-1.866-0.33-2.831-0.33c-1.287,0-2.374,0.22-3.263,0.66   s-1.333,1.024-1.333,1.752c0,0.644,0.22,1.151,0.66,1.523c0.44,0.372,1.396,0.736,2.869,1.092c0.762,0.187,1.638,0.368,2.628,0.546   s1.942,0.419,2.856,0.724c2.048,0.66,3.601,1.629,4.659,2.907c1.058,1.278,1.587,2.975,1.587,5.091   c0,1.337-0.313,2.611-0.939,3.821c-0.626,1.21-1.515,2.23-2.666,3.06c-1.219,0.897-2.653,1.591-4.304,2.082   S57.791,399.056,55.489,399.056z"
   id="path21" />
	<path
   d="M100.938,384.025c0,4.688-1.282,8.383-3.847,11.083s-6.191,4.05-10.88,4.05c-4.655,0-8.273-1.35-10.854-4.05   c-2.582-2.7-3.872-6.395-3.872-11.083c0-4.739,1.291-8.451,3.872-11.134c2.581-2.683,6.199-4.024,10.854-4.024   c4.672,0,8.294,1.35,10.867,4.05C99.652,375.617,100.938,379.319,100.938,384.025z M91.823,384.076c0-1.692-0.14-3.102-0.419-4.228   s-0.665-2.027-1.155-2.704c-0.525-0.711-1.117-1.206-1.777-1.485s-1.414-0.419-2.26-0.419c-0.796,0-1.515,0.123-2.158,0.368   c-0.644,0.245-1.236,0.715-1.777,1.409c-0.508,0.66-0.914,1.565-1.219,2.717s-0.457,2.599-0.457,4.342s0.144,3.152,0.432,4.228   c0.288,1.075,0.66,1.934,1.117,2.577c0.474,0.66,1.066,1.143,1.777,1.447s1.498,0.457,2.361,0.457c0.711,0,1.435-0.152,2.171-0.457   s1.324-0.762,1.765-1.371c0.524-0.728,0.922-1.604,1.193-2.628C91.688,387.304,91.823,385.887,91.823,384.076z"
   id="path23" />
	<path
   d="M132.372,398.269h-8.938v-14.143c0-1.151-0.047-2.298-0.14-3.44c-0.093-1.143-0.267-1.984-0.521-2.526   c-0.305-0.644-0.745-1.104-1.32-1.384c-0.576-0.279-1.346-0.419-2.311-0.419c-0.728,0-1.464,0.136-2.209,0.406   c-0.745,0.271-1.541,0.702-2.387,1.295v20.211h-8.887v-28.514h8.887v3.148c1.456-1.235,2.873-2.2,4.253-2.895   c1.379-0.694,2.907-1.041,4.583-1.041c2.911,0,5.137,0.918,6.678,2.755c1.54,1.837,2.311,4.498,2.311,7.985V398.269z"
   id="path25" />
	<path
   d="M154.665,395.248c-0.609,0.508-1.155,0.965-1.638,1.371s-1.13,0.813-1.942,1.219c-0.796,0.39-1.57,0.686-2.323,0.889   c-0.753,0.203-1.807,0.305-3.161,0.305c-2.522,0-4.617-0.847-6.284-2.539c-1.667-1.692-2.501-3.825-2.501-6.398   c0-2.116,0.423-3.825,1.27-5.129c0.846-1.304,2.065-2.336,3.656-3.098c1.608-0.778,3.529-1.32,5.764-1.625s4.638-0.542,7.211-0.711   v-0.152c0-1.574-0.58-2.662-1.739-3.263c-1.16-0.601-2.899-0.901-5.218-0.901c-1.05,0-2.277,0.19-3.682,0.571   c-1.405,0.381-2.776,0.867-4.113,1.46h-0.762v-6.881c0.88-0.254,2.302-0.555,4.266-0.901c1.963-0.347,3.944-0.521,5.941-0.521   c4.909,0,8.484,0.816,10.728,2.45c2.243,1.634,3.364,4.126,3.364,7.478v19.398h-8.836V395.248z M154.665,390.83v-5.941   c-1.507,0.152-2.726,0.283-3.656,0.394c-0.931,0.11-1.845,0.326-2.742,0.647c-0.779,0.271-1.384,0.682-1.815,1.231   s-0.647,1.282-0.647,2.196c0,1.337,0.359,2.256,1.079,2.755c0.719,0.499,1.781,0.749,3.187,0.749c0.778,0,1.574-0.178,2.387-0.533   S154.005,391.473,154.665,390.83z"
   id="path27" />
	<path
   d="M180.995,398.828c-3.622,0-6.259-0.745-7.909-2.234s-2.476-3.927-2.476-7.313v-13.33h-3.402v-6.195h3.402v-8.15h8.887v8.15   h8.557v6.195h-8.557v10.105c0,0.999,0.009,1.87,0.025,2.615s0.152,1.413,0.406,2.006c0.237,0.593,0.655,1.063,1.257,1.409   c0.601,0.347,1.477,0.521,2.628,0.521c0.474,0,1.096-0.102,1.866-0.305c0.77-0.203,1.308-0.39,1.612-0.559h0.762v6.271   c-0.965,0.254-1.989,0.453-3.072,0.597S182.569,398.828,180.995,398.828z"
   id="path29" />
	<path
   d="M210.829,378.16h-0.736c-0.339-0.118-0.829-0.207-1.473-0.267s-1.354-0.089-2.133-0.089c-0.931,0-1.909,0.136-2.933,0.406   c-1.024,0.271-2.019,0.593-2.983,0.965v19.094h-8.887v-28.514h8.887v4.088c0.406-0.372,0.969-0.842,1.688-1.409   c0.719-0.567,1.375-1.02,1.968-1.358c0.644-0.39,1.392-0.724,2.247-1.003c0.854-0.279,1.663-0.419,2.425-0.419   c0.288,0,0.609,0.009,0.965,0.025s0.677,0.042,0.965,0.076V378.16z"
   id="path31" />
	<path
   d="M229.948,395.248c-0.609,0.508-1.155,0.965-1.638,1.371s-1.13,0.813-1.942,1.219c-0.796,0.39-1.57,0.686-2.323,0.889   c-0.754,0.203-1.807,0.305-3.161,0.305c-2.522,0-4.617-0.847-6.284-2.539c-1.668-1.692-2.501-3.825-2.501-6.398   c0-2.116,0.423-3.825,1.27-5.129s2.065-2.336,3.656-3.098c1.608-0.778,3.529-1.32,5.764-1.625s4.638-0.542,7.211-0.711v-0.152   c0-1.574-0.58-2.662-1.739-3.263c-1.16-0.601-2.898-0.901-5.218-0.901c-1.05,0-2.276,0.19-3.682,0.571s-2.776,0.867-4.113,1.46   h-0.762v-6.881c0.88-0.254,2.302-0.555,4.266-0.901s3.944-0.521,5.941-0.521c4.909,0,8.484,0.816,10.728,2.45   s3.364,4.126,3.364,7.478v19.398h-8.836V395.248z M229.948,390.83v-5.941c-1.507,0.152-2.726,0.283-3.656,0.394   s-1.845,0.326-2.742,0.647c-0.778,0.271-1.384,0.682-1.815,1.231s-0.647,1.282-0.647,2.196c0,1.337,0.359,2.256,1.079,2.755   c0.719,0.499,1.781,0.749,3.187,0.749c0.778,0,1.574-0.178,2.387-0.533S229.288,391.473,229.948,390.83z"
   id="path33" />
	<path
   d="M259.351,399.031c-2.353,0-4.507-0.296-6.462-0.889s-3.652-1.507-5.091-2.742c-1.422-1.235-2.53-2.789-3.326-4.659   s-1.193-4.075-1.193-6.614c0-2.726,0.432-5.044,1.295-6.957s2.031-3.487,3.504-4.723c1.422-1.185,3.094-2.061,5.015-2.628   s3.923-0.851,6.005-0.851c1.574,0,3.148,0.182,4.723,0.546s3.157,0.943,4.748,1.739v7.617h-1.143   c-0.355-0.339-0.791-0.711-1.308-1.117s-1.079-0.778-1.688-1.117c-0.644-0.355-1.371-0.656-2.184-0.901s-1.718-0.368-2.717-0.368   c-2.269,0-4.024,0.791-5.269,2.374s-1.866,3.711-1.866,6.386c0,2.86,0.664,4.993,1.993,6.398s3.094,2.107,5.294,2.107   c1.117,0,2.099-0.127,2.945-0.381s1.574-0.559,2.184-0.914c0.593-0.355,1.101-0.724,1.523-1.104s0.787-0.724,1.092-1.028h1.143   v7.617c-0.508,0.22-1.096,0.474-1.765,0.762s-1.35,0.524-2.044,0.711c-0.863,0.237-1.672,0.419-2.425,0.546   S260.586,399.031,259.351,399.031z"
   id="path35" />
	<path
   d="M299.493,398.269h-8.938v-14.143c0-1.151-0.047-2.298-0.14-3.44s-0.267-1.984-0.521-2.526   c-0.305-0.644-0.745-1.104-1.32-1.384s-1.346-0.419-2.311-0.419c-0.728,0-1.464,0.136-2.209,0.406s-1.54,0.702-2.387,1.295v20.211   h-8.887v-39.508h8.887v14.143c1.456-1.235,2.873-2.2,4.253-2.895s2.907-1.041,4.583-1.041c2.911,0,5.138,0.918,6.678,2.755   s2.311,4.498,2.311,7.985V398.269z"
   id="path37" />
</g>
</svg>